PathFileType	4	(X/Y/Z)	Walk3.trc
DataRate	CameraRate	NumFrames	NumMarkers	Units	OrigDataRate	OrigDataStartFrame	OrigNumFrames
200.000000	200.000000	8	56	mm	200.000000	571	821
Frame#	Times		LWRR		RLFC		RBHD		RTH3		C7		RMFC		RToe		LElbow		RTB2		RMT1		RMT5		RTB3		LMT5		LWRU		LUA1		LCAR		RCAL		LACR1		RMMAL		RFA1		LASI		LLFC		LTH3		LTB2		LPSI		LCAL		LMMAL		LToe		RPSI		RLMAL		LLMAL		RUA1		LTH2		RFHD		RWRU		RBack		LBHD		LTH4		LMFC		LTB1		RCAR		LTH1		LTB3		RTH2		LTB4		LMT1		RElbow		RTH1		RTH4		RTB4		LFHD		RASI		RACR1		RWRR		T10		RTB1
			X1	Y1	Z1	X2	Y2	Z2	X3	Y3	Z3	X4	Y4	Z4	X5	Y5	Z5	X6	Y6	Z6	X7	Y7	Z7	X8	Y8	Z8	X9	Y9	Z9	X10	Y10	Z10	X11	Y11	Z11	X12	Y12	Z12	X13	Y13	Z13	X14	Y14	Z14	X15	Y15	Z15	X16	Y16	Z16	X17	Y17	Z17	X18	Y18	Z18	X19	Y19	Z19	X20	Y20	Z20	X21	Y21	Z21	X22	Y22	Z22	X23	Y23	Z23	X24	Y24	Z24	X25	Y25	Z25	X26	Y26	Z26	X27	Y27	Z27	X28	Y28	Z28	X29	Y29	Z29	X30	Y30	Z30	X31	Y31	Z31	X32	Y32	Z32	X33	Y33	Z33	X34	Y34	Z34	X35	Y35	Z35	X36	Y36	Z36	X37	Y37	Z37	X38	Y38	Z38	X39	Y39	Z39	X40	Y40	Z40	X41	Y41	Z41	X42	Y42	Z42	X43	Y43	Z43	X44	Y44	Z44	X45	Y45	Z45	X46	Y46	Z46	X47	Y47	Z47	X48	Y48	Z48	X49	Y49	Z49	X50	Y50	Z50	X51	Y51	Z51	X52	Y52	Z52	X53	Y53	Z53	X54	Y54	Z54	X55	Y55	Z55	X56	Y56	Z56

571	2.855	-271.81	824.38	-293.14	-208.75	549.32	138.41	-397.28	1610	-76.053	-223.75	593.2	142.68	-427.21	1480.2	-10.044	-224.67	511.56	14.153	-22.285	69.099	113.21	-389.04	1080	-299.93	-181.3	317.35	129.3	-66.44	61.383	67.876	-111.38	55.021	137.46	-174.56	229.45	54.947	-382.61	23.171	-121.3	-196.62	827.75	-286.6	-357.31	1216.5	-259.73	-345.52	944.87	-302.72	-269.16	48.83	38.392	-336.56	1419.4	-179.66	-190.46	99.086	27.769	-409.29	930.17	271.91	-323.49	1034.6	-160.59	-401.5	512.9	-128.42	-383.53	576.78	-137.13	-403.8	291.59	-113.64	-511.59	1040	-36.385	-563.49	34.16	-47.351	-477.02	67.157	-11.714	-295.1	37.037	-59.768	-513.74	1038.2	31.813	-226.51	91.95	103.38	-498.02	60.036	-94.894	-357.7	1247.6	231.85	-317.85	671.16	-113.24	-222.46	1653	-43.206	-313.99	838.66	224.1	-446.44	1372.4	143.73	-397.63	1603.4	60.64	-376.39	669.33	-157.16	-422.8	493.37	-1.8892	-377.29	381.21	-43.204	-326.25	789.21	269	-370.12	760.45	-173.99	-427.29	202.85	-41.722	-206.03	707.99	117.07	-403.33	292.23	-41.561	-345.72	28.983	-38.477	-437.06	1089.7	271.2	-288.85	768.11	175.64	-257.12	678.73	161.71	-164.99	317.18	55.859	-223	1651.1	31.571	-321.21	993.94	148.94	-314.86	1426	145.53	-391.5	810.46	237.28	-500.59	1224.3	-3.1443	-156.88	414.06	59.978
572	2.86	-263.94	824.67	-293.12	-205.07	548	138.33	-392.37	1609.5	-75.941	-219.98	591.92	142.58	-422.24	1479.7	-9.9661	-220.74	509.79	14.022	-4.922	71.243	113.38	-383.06	1079.3	-300.34	-171.57	316.85	129.62	-48.968	62.783	68.131	-93.588	55.333	137.78	-161.83	228.93	55.521	-382.59	23.137	-121.28	-188.77	828.62	-286.41	-352.17	1216	-260.06	-338.49	944.55	-302.99	-251.38	46.148	38.996	-331.8	1418.9	-179.68	-173.8	98.104	28.416	-404.78	929.73	271.98	-319.02	1033.9	-160.85	-399.18	512.48	-128.35	-380.75	576.37	-137.11	-402.57	291.16	-113.5	-506.79	1039.5	-36.023	-563.5	34.209	-47.263	-476.92	67.118	-11.576	-294.99	36.807	-59.801	-508.77	1037.5	32.112	-209.76	89.969	104	-497.96	60.06	-94.794	-352.8	1247	231.86	-314.64	670.42	-113.01	-217.56	1652.5	-43.028	-309.66	838.14	223.99	-441.36	1371.8	143.79	-392.74	1602.7	60.745	-373.13	668.9	-157.06	-420.63	493.13	-1.8111	-375.66	380.65	-43.097	-321.87	788.69	268.91	-366.35	759.96	-173.9	-426.53	202.54	-41.597	-201.94	706.6	116.76	-402.14	291.79	-41.438	-345.71	29.027	-38.408	-432.38	1089.3	271.34	-284.92	766.85	175.71	-252.85	677.58	161.7	-154.99	316.94	56.24	-218.1	1650.5	31.745	-315.96	993.27	148.86	-309.76	1425.4	145.5	-387.16	810.03	237.34	-495.77	1223.8	-3.0014	-149.93	414.02	60.167
573	2.865	-256.13	824.93	-293.08	-201.51	546.56	138.24	-387.43	1608.9	-75.799	-216.33	590.53	142.48	-417.26	1479.1	-9.8658	-216.88	507.94	13.873	12.19	73.768	113.49	-377.07	1078.7	-300.73	-161.98	316.44	129.94	-31.743	64.501	68.366	-75.968	55.994	138.11	-149.3	228.57	56.107	-382.57	23.101	-121.28	-180.99	829.45	-286.19	-347	1215.5	-260.34	-331.49	944.22	-303.23	-233.75	43.73	39.704	-327.02	1418.3	-179.68	-157.36	97.378	29.107	-400.24	929.26	272.08	-314.54	1033.2	-161.1	-396.82	512.05	-128.26	-377.94	575.94	-137.09	-401.31	290.71	-113.36	-501.98	1038.9	-35.627	-563.5	34.266	-47.174	-476.83	67.083	-11.441	-294.88	36.572	-59.836	-503.76	1036.9	32.445	-193.13	88.274	104.68	-497.9	60.088	-94.695	-347.85	1246.5	231.89	-311.4	669.67	-112.79	-212.64	1652	-42.825	-305.29	837.59	223.92	-436.26	1371.2	143.87	-387.83	1602.1	60.881	-369.84	668.44	-156.95	-418.43	492.87	-1.7203	-374	380.09	-42.982	-317.45	788.14	268.85	-362.57	759.46	-173.81	-425.76	202.23	-41.467	-197.93	705.09	116.48	-400.93	291.35	-41.309	-345.71	29.066	-38.34	-427.67	1088.9	271.5	-281.12	765.48	175.77	-248.71	676.32	161.66	-145.16	316.77	56.62	-213.17	1649.9	31.945	-310.67	992.56	148.78	-304.64	1424.7	145.49	-382.77	809.56	237.43	-490.94	1223.3	-2.8328	-143.16	413.97	60.335
574	2.87	-248.38	825.17	-293	-198.06	545.03	138.16	-382.48	1608.3	-75.627	-212.78	589.03	142.37	-412.26	1478.5	-9.7427	-213.07	506.04	13.712	29.008	76.676	113.52	-371.08	1078.1	-301.09	-152.53	316.11	130.26	-14.812	66.541	68.572	-58.572	57.007	138.43	-136.99	228.35	56.693	-382.55	23.063	-121.27	-173.28	830.23	-285.92	-341.79	1214.9	-260.59	-324.53	943.89	-303.45	-216.33	41.567	40.506	-322.21	1417.7	-179.65	-141.18	96.903	29.827	-395.66	928.77	272.18	-310.05	1032.5	-161.34	-394.42	511.6	-128.17	-375.11	575.49	-137.05	-400.03	290.26	-113.21	-497.15	1038.2	-35.199	-563.49	34.331	-47.083	-476.72	67.048	-11.312	-294.76	36.335	-59.87	-498.73	1036.2	32.813	-176.7	86.863	105.41	-497.83	60.119	-94.597	-342.87	1245.9	231.93	-308.14	668.91	-112.57	-207.7	1651.4	-42.598	-300.87	837	223.88	-431.14	1370.6	143.98	-382.89	1601.4	61.047	-366.53	667.95	-156.82	-416.18	492.61	-1.6163	-372.3	379.51	-42.858	-313.01	787.56	268.83	-358.78	758.93	-173.71	-424.97	201.92	-41.332	-193.98	703.48	116.24	-399.69	290.89	-41.173	-345.7	29.101	-38.274	-422.92	1088.4	271.66	-277.43	764.01	175.82	-244.68	674.95	161.62	-135.52	316.67	56.988	-208.23	1649.2	32.171	-305.33	991.82	148.7	-299.49	1424	145.51	-378.34	809.06	237.53	-486.07	1222.8	-2.6368	-136.54	413.92	60.477
575	2.875	-240.71	825.38	-292.9	-194.69	543.43	138.09	-377.5	1607.7	-75.424	-209.32	587.44	142.26	-407.25	1477.8	-9.5956	-209.29	504.1	13.546	45.481	79.959	113.49	-365.09	1077.5	-301.43	-143.22	315.86	130.57	1.7746	68.901	68.745	-41.457	58.364	138.73	-124.92	228.28	57.267	-382.54	23.025	-121.27	-165.66	830.97	-285.63	-336.53	1214.4	-260.79	-317.6	943.54	-303.64	-199.16	39.645	41.386	-317.38	1417.1	-179.59	-125.31	96.667	30.562	-391.04	928.24	272.3	-305.55	1031.8	-161.56	-391.98	511.14	-128.06	-372.25	575.03	-137	-398.73	289.8	-113.05	-492.3	1037.6	-34.741	-563.48	34.405	-46.991	-476.6	67.01	-11.192	-294.64	36.096	-59.906	-493.66	1035.4	33.213	-160.49	85.731	106.19	-497.76	60.154	-94.501	-337.85	1245.3	231.99	-304.87	668.14	-112.34	-202.74	1650.8	-42.348	-296.4	836.39	223.87	-426	1370	144.12	-377.93	1600.6	61.244	-363.19	667.44	-156.68	-413.88	492.35	-1.4984	-370.58	378.91	-42.724	-308.54	786.95	268.85	-354.98	758.38	-173.61	-424.17	201.6	-41.191	-190.08	701.78	116.05	-398.42	290.43	-41.032	-345.69	29.129	-38.211	-418.12	1087.9	271.82	-273.85	762.45	175.85	-240.75	673.49	161.56	-126.09	316.65	57.337	-203.27	1648.6	32.423	-299.94	991.05	148.61	-294.33	1423.4	145.55	-373.87	808.53	237.64	-481.18	1222.2	-2.412	-130.07	413.85	60.589
576	2.88	-233.11	825.57	-292.76	-191.38	541.77	138.01	-372.51	1607.1	-75.19	-205.92	585.77	142.14	-402.23	1477.2	-9.4232	-205.53	502.14	13.383	61.561	83.592	113.37	-359.11	1076.8	-301.74	-134.07	315.69	130.87	17.967	71.564	68.879	-24.68	60.045	139.02	-113.13	228.33	57.818	-382.52	22.987	-121.28	-158.11	831.66	-285.3	-331.23	1213.8	-260.94	-310.72	943.2	-303.8	-182.29	37.949	42.327	-312.51	1416.5	-179.49	-109.8	96.656	31.292	-386.38	927.7	272.44	-301.02	1031.1	-161.77	-389.51	510.66	-127.93	-369.36	574.55	-136.95	-397.41	289.33	-112.89	-487.44	1036.8	-34.254	-563.47	34.489	-46.899	-476.48	66.967	-11.081	-294.51	35.858	-59.942	-488.56	1034.6	33.645	-144.57	84.866	106.98	-497.69	60.195	-94.407	-332.79	1244.7	232.06	-301.56	667.36	-112.11	-197.76	1650.1	-42.074	-291.89	835.74	223.9	-420.83	1369.3	144.28	-372.95	1599.9	61.472	-359.82	666.91	-156.52	-411.55	492.07	-1.366	-368.82	378.31	-42.579	-304.03	786.31	268.89	-351.16	757.82	-173.5	-423.35	201.28	-41.046	-186.23	700.01	115.89	-397.13	289.96	-40.883	-345.69	29.152	-38.15	-413.29	1087.4	272	-270.37	760.8	175.87	-236.93	671.96	161.49	-116.87	316.69	57.657	-198.28	1647.9	32.7	-294.5	990.24	148.52	-289.15	1422.6	145.61	-369.36	807.97	237.77	-476.26	1221.6	-2.1572	-123.74	413.77	60.67
577	2.885	-225.59	825.74	-292.6	-188.09	540.07	137.95	-367.5	1606.4	-74.924	-202.55	584.05	142.02	-397.19	1476.5	-9.2236	-201.77	500.17	13.228	77.193	87.539	113.18	-353.13	1076.2	-302.02	-125.09	315.59	131.15	33.713	74.504	68.97	-8.3037	62.017	139.27	-101.64	228.51	58.335	-382.5	22.948	-121.29	-150.64	832.31	-284.94	-325.87	1213.3	-261.03	-303.89	942.85	-303.93	-165.79	36.46	43.302	-307.61	1415.8	-179.36	-94.699	96.85	32.001	-381.68	927.12	272.6	-296.47	1030.4	-161.97	-386.99	510.17	-127.8	-366.43	574.05	-136.88	-396.06	288.86	-112.72	-482.56	1036.1	-33.742	-563.45	34.585	-46.808	-476.35	66.92	-10.98	-294.38	35.621	-59.978	-483.43	1033.8	34.107	-128.99	84.252	107.78	-497.61	60.243	-94.316	-327.7	1244	232.15	-298.24	666.58	-111.87	-192.76	1649.5	-41.778	-287.33	835.06	223.96	-415.65	1368.6	144.46	-367.94	1599.1	61.732	-356.42	666.36	-156.35	-409.16	491.78	-1.2185	-367.04	377.69	-42.425	-299.49	785.64	268.98	-347.33	757.23	-173.4	-422.52	200.95	-40.897	-182.41	698.2	115.78	-395.82	289.48	-40.728	-345.68	29.17	-38.093	-408.41	1086.8	272.18	-266.96	759.1	175.89	-233.18	670.36	161.41	-107.87	316.79	57.945	-193.27	1647.1	33.001	-289.01	989.4	148.41	-283.95	1421.9	145.69	-364.81	807.38	237.92	-471.31	1221	-1.8717	-117.54	413.69	60.72
578	2.89	-218.15	825.89	-292.4	-184.79	538.35	137.89	-362.48	1605.8	-74.626	-199.18	582.29	141.89	-392.14	1475.8	-8.995	-197.97	498.22	13.089	92.324	91.744	112.92	-347.16	1075.6	-302.28	-116.27	315.55	131.41	48.961	77.68	69.016	7.609	64.237	139.48	-90.466	228.79	58.808	-382.48	22.91	-121.3	-143.25	832.92	-284.55	-320.47	1212.7	-261.08	-297.11	942.49	-304.03	-149.71	35.161	44.283	-302.69	1415.2	-179.2	-80.059	97.225	32.67	-376.94	926.51	272.77	-291.91	1029.8	-162.15	-384.44	509.67	-127.65	-363.47	573.54	-136.81	-394.7	288.39	-112.55	-477.67	1035.3	-33.207	-563.43	34.693	-46.72	-476.21	66.867	-10.889	-294.24	35.388	-60.014	-478.27	1033	34.596	-113.82	83.865	108.56	-497.53	60.298	-94.228	-322.58	1243.3	232.27	-294.89	665.78	-111.62	-187.74	1648.8	-41.459	-282.72	834.34	224.06	-410.44	1367.9	144.68	-362.91	1598.3	62.023	-352.99	665.79	-156.17	-406.73	491.49	-1.0563	-365.24	377.05	-42.259	-294.92	784.94	269.09	-343.49	756.62	-173.29	-421.68	200.63	-40.745	-178.59	696.37	115.72	-394.49	288.99	-40.566	-345.67	29.183	-38.037	-403.49	1086.3	272.38	-263.61	757.35	175.9	-229.49	668.72	161.33	-99.101	316.94	58.195	-188.25	1646.4	33.327	-283.47	988.55	148.3	-278.74	1421.2	145.81	-360.22	806.76	238.07	-466.33	1220.3	-1.555	-111.45	413.6	60.741
